PathFileType	4	(X/Y/Z)	C:/Users/opensim2020/Desktop/walking_exp_matlab/subject01_walking07_straight_03.trc																																																																																																																															
DataRate	CameraRate	NumFrames	NumMarkers	Units	OrigDataRate	OrigDataStartFrame	OrigNumFrames																																																																																																																											
100	100	7	43	mm	100	2173	220																																																																																																																											
Frame#	Time	LFHD			RFHD			LBHD			RBHD			C7			T10			CLAV			STRN			RBAK			LSHO			LUPA			LELB			LFRM			LWRA			LWRB			LFIN			RSHO			RUPA			RELB			RFRM			RWRA			RWRB			RFIN			LASI			RASI			LPSI			RPSI			LTHI			LKNE			LTIB			LANK			LHEE			LTOE			RTHI			RKNE			RTIB			RANK			RHEE			RTOE			*39			*40			*41			*42		
		X1	Y1	Z1	X2	Y2	Z2	X3	Y3	Z3	X4	Y4	Z4	X5	Y5	Z5	X6	Y6	Z6	X7	Y7	Z7	X8	Y8	Z8	X9	Y9	Z9	X10	Y10	Z10	X11	Y11	Z11	X12	Y12	Z12	X13	Y13	Z13	X14	Y14	Z14	X15	Y15	Z15	X16	Y16	Z16	X17	Y17	Z17	X18	Y18	Z18	X19	Y19	Z19	X20	Y20	Z20	X21	Y21	Z21	X22	Y22	Z22	X23	Y23	Z23	X24	Y24	Z24	X25	Y25	Z25	X26	Y26	Z26	X27	Y27	Z27	X28	Y28	Z28	X29	Y29	Z29	X30	Y30	Z30	X31	Y31	Z31	X32	Y32	Z32	X33	Y33	Z33	X34	Y34	Z34	X35	Y35	Z35	X36	Y36	Z36	X37	Y37	Z37	X38	Y38	Z38	X39	Y39	Z39	X40	Y40	Z40	X41	Y41	Z41	X42	Y42	Z42	X43	Y43	Z43
																																																																																																																																		
138	1.37	272.27185	1664.59827	1331.10913	310.64987	1675.09912	1438.09277	160.47377	1620.8645	1367.83521	198.32236	1631.04932	1481.59216	133.26773	1427.31177	1408.82971	102.39101	1134.29419	1428.76331	278.74594	1363.35303	1402.17871	324.49738	1209.15088	1403.95764	86.24989	1237.04419	1497.73828	210.30479	1383.35229	1244.36975	183.95709	1194.4386	1166.21069	169.69415	1046.21484	1171.19238	199.13307	936.88635	1146.81653	265.05499	813.9765	1170.53381	212.28761	815.24261	1141.22742	253.52913	739.49933	1137.90259	224.8909	1397.2627	1556.36584	180.68942	1201.57788	1669.66321	189.59061	1075.37134	1678.47656	237.94629	963.10181	1709.30603	335.29788	861.91064	1685.20557	296.13251	856.31866	1728.4718	347.04865	787.83948	1724.46729	280.11533	933.79156	1323.06348	277.18463	929.84857	1540.15601	92.3183	940.29266	1372.11462	91.89657	937.3584	1516.62524	289.83224	606.58759	1264.89685	300.92041	472.94916	1284.72119	259.24326	287.16617	1275.66479	242.07121	70.39555	1330.25354	197.91325	40.69509	1382.80872	388.82742	35.72805	1320.72766	247.56285	592.3717	1607.46716	256.3042	435.76941	1594.95923	104.05557	347.32864	1590.96667	-52.47711	217.37874	1540.23474	-100.11322	228.67674	1479.17151	-21.63364	76.63115	1555.99609	293.99966	1708.26501	1417.71716	1973.15942	1023.46271	-3101.9397	2012.61487	1022.16296	-3140.54785	NaN	NaN	NaN
139	1.38	281.88217	1665.08289	1329.75159	320.38977	1675.63123	1436.72852	170.11575	1621.51929	1366.5896	208.04553	1631.73328	1480.35718	142.69164	1428.12988	1407.53259	111.05033	1135.13586	1427.22998	288.0946	1363.81067	1401.11023	333.48459	1209.44995	1402.7821	95.2472	1237.88757	1496.10278	219.99022	1384.08984	1243.22815	195.46677	1195.36804	1164.48193	182.93181	1046.7218	1168.46558	214.95193	938.09827	1143.77002	284.04135	816.85785	1166.81274	231.14198	816.89185	1137.74622	274.30896	742.30951	1133.86584	234.16296	1397.65515	1555.02441	189.0909	1202.04041	1668.01331	197.19899	1076.02393	1676.65161	242.96825	962.90161	1707.55823	337.90533	859.32941	1683.77087	298.77969	854.84216	1727.02893	347.74823	784.74347	1722.74292	288.57608	934.18555	1321.4928	286.11795	930.88733	1538.86426	100.77921	940.57404	1371.13196	100.65296	937.62634	1515.80408	295.11267	606.14032	1264.11438	304.8963	472.41391	1284.09912	261.72821	286.93311	1275.50537	242.66878	70.38419	1330.52722	198.02435	40.95731	1382.96838	389.07632	35.56932	1320.73999	262.88898	594.26733	1606.18848	275.21399	438.31949	1593.78088	122.93288	350.02951	1589.08716	-33.2556	219.9351	1537.96326	-81.09889	229.60652	1476.14124	-1.24778	80.40986	1557.46692	303.68311	1708.77795	1416.30957	1973.19495	1023.33881	-3101.97046	2012.54175	1021.95325	-3140.89746	NaN	NaN	NaN
140	1.39	291.64337	1665.53735	1328.54834	330.13541	1676.03455	1435.52319	179.79279	1622.17053	1365.45129	217.71814	1632.33252	1479.17383	152.01431	1428.88025	1406.2218	119.83475	1135.93958	1425.77771	297.44519	1364.18787	1400.0752	342.27481	1209.65186	1401.69385	103.76027	1238.78674	1494.53638	229.68794	1384.82886	1242.17078	206.87762	1196.30823	1162.92908	196.38396	1047.33105	1165.76123	230.81975	939.42676	1140.71851	303.07858	819.99841	1163.08887	250.03403	818.71069	1134.35999	295.16217	745.49744	1129.81372	243.55495	1398.33496	1554.11194	197.47539	1202.49316	1666.38586	204.72015	1076.56433	1674.72131	248.00011	962.75067	1705.77966	340.42603	856.83099	1682.37939	301.16537	853.31525	1725.58411	348.32425	781.8783	1721.19507	296.91373	934.55389	1319.93872	295.0343	931.94147	1537.49011	109.20112	940.84247	1370.25964	109.46322	937.81616	1514.91821	300.42218	605.75452	1263.48511	308.94443	471.82776	1283.59058	264.06207	286.65329	1275.18494	242.83742	70.34935	1330.68262	198.07654	41.15043	1383.03589	389.30112	35.41887	1320.7699	278.14951	596.17615	1604.79565	293.8548	440.7507	1592.32898	142.03166	351.93723	1586.93469	-13.65262	221.47926	1536.02161	-61.80445	229.45415	1473.64929	20.59159	83.17336	1558.10449	313.51541	1709.20642	1415.0957	1973.06799	1023.37244	-3102.04614	2012.53845	1022.08081	-3140.68896	NaN	NaN	NaN
141	1.4	301.45847	1665.92163	1327.52795	340.00668	1676.3457	1434.50598	189.52464	1622.7959	1364.39673	227.49731	1632.88794	1478.14746	161.35507	1429.55078	1405.03748	128.5369	1136.66431	1424.38806	306.71387	1364.54993	1399.14539	351.21106	1209.91406	1400.71924	112.61216	1239.52258	1493.10742	239.43028	1385.51074	1241.21411	218.25983	1197.30737	1161.41479	209.68781	1047.93677	1163.16821	246.77541	940.87048	1137.72717	322.10974	823.34509	1159.49426	269.00467	820.68146	1131.06714	316.06738	748.87683	1125.80188	252.65125	1398.80859	1553.021	205.73573	1202.84912	1664.83447	212.15826	1077.07544	1672.75427	253.00226	962.67554	1704.09424	342.88864	854.3855	1681.02124	303.49698	852.04755	1724.41089	348.59921	778.95319	1719.67432	305.29251	934.97028	1318.2688	303.91217	932.95532	1536.08948	117.43804	941.07813	1369.43909	118.64457	938.21954	1514.14478	305.73526	605.3761	1262.92957	312.91537	471.21704	1283.1322	266.14014	286.36566	1275.10181	243.0034	70.37315	1330.75232	198.12791	41.24411	1383.0863	389.46674	35.30549	1320.78369	293.42035	598.02545	1603.45349	312.30347	443.14578	1590.79065	161.4221	353.27435	1584.81311	6.25576	221.71721	1534.0918	-42.20088	228.13351	1471.77832	44.07101	85.05737	1558.2511	323.41904	1709.54456	1414.00195	1973.17871	1023.54926	-3101.8916	2012.55872	1022.07416	-3140.6333	NaN	NaN	NaN
142	1.41	311.42172	1666.3252	1326.6178	349.95218	1676.55273	1433.6438	199.26248	1623.474	1363.46875	237.25232	1633.35767	1477.19763	170.65027	1430.22961	1403.90503	137.31952	1137.28528	1423.03845	315.91925	1364.88599	1398.25916	360.20059	1210.21411	1399.81238	121.474	1240.14685	1491.80322	248.94887	1386.18835	1240.26062	229.3943	1198.21118	1159.99792	223.06396	1048.67871	1160.67603	262.61407	942.44055	1134.86475	341.15057	826.93585	1155.95264	287.94705	822.89777	1127.8866	337.08414	752.62122	1121.84302	261.57669	1399.1106	1551.86401	213.98715	1203.14917	1663.33655	219.5486	1077.54846	1670.79175	258.07501	962.66003	1702.41858	345.31976	851.93036	1679.89551	305.92072	850.84937	1723.1322	348.97879	776.41064	1718.39441	313.68103	935.40009	1316.65552	312.75452	933.91693	1534.62988	125.85596	941.36096	1368.77551	127.51707	938.95795	1513.49084	311.10587	604.94324	1262.31177	316.74667	470.57352	1282.64783	268.32169	286.08252	1274.84387	243.20668	70.57087	1330.77356	198.20511	41.42063	1383.172	389.63492	35.18124	1320.77954	308.56396	599.89288	1601.92126	330.52942	445.51099	1589.2041	180.42235	354.52356	1583.16577	26.87555	220.78288	1532.54749	-22.38183	225.64737	1470.54736	68.859	85.95249	1557.46399	333.48346	1709.84692	1413.21851	1972.98303	1023.80139	-3102.15527	2012.57788	1022.04883	-3140.52393	NaN	NaN	NaN
143	1.42	321.30185	1666.68396	1325.86755	359.89905	1676.70154	1432.87695	209.09837	1624.14343	1362.68689	247.12946	1633.88855	1476.44385	179.86549	1430.82117	1402.83789	146.06459	1137.95435	1421.83691	325.07568	1365.27429	1397.40649	368.84964	1210.38501	1398.72839	130.31847	1240.70337	1490.52917	258.43762	1386.86865	1239.40173	240.47853	1199.14661	1158.62085	236.32309	1049.31323	1158.06921	278.52661	944.15613	1131.96228	360.11749	830.77557	1152.55688	306.89648	825.34918	1124.73779	357.93423	756.67468	1118.00281	270.52069	1399.53735	1550.94312	222.17462	1203.37488	1661.86584	226.80554	1077.96216	1668.81287	263.03903	962.62415	1700.7821	347.68942	849.89069	1678.61023	308.2872	849.76239	1721.92212	349.18182	773.9436	1717.13098	322.37338	935.97339	1315.09021	321.59305	934.84412	1533.09143	134.25185	941.64508	1368.17603	136.60774	939.8559	1513.07959	316.51563	604.50793	1261.67395	320.46414	469.99899	1281.96118	270.44611	285.87924	1274.44482	243.4153	70.63047	1330.87256	198.27417	41.55857	1383.15735	389.79773	35.09766	1320.76111	323.53177	601.97284	1600.34094	348.40369	447.99002	1587.57935	199.36996	355.14713	1581.34985	48.20332	218.8347	1531.42688	-2.15065	222.00604	1469.76367	95.03025	85.8014	1556.21167	343.47339	1710.01599	1412.40906	1973.13611	1023.49066	-3101.98364	2012.50037	1021.95752	-3140.69092	NaN	NaN	NaN
144	1.43	331.3266	1666.97876	1325.2207	369.90222	1676.78967	1432.23718	218.95024	1624.83972	1361.94287	256.93304	1634.32971	1475.68665	189.03418	1431.3512	1401.88513	154.84048	1138.48914	1420.67871	334.23306	1365.6272	1396.61536	377.47189	1210.49902	1397.65112	139.15129	1241.23792	1489.37073	267.83038	1387.51624	1238.57312	251.59651	1200.0907	1157.26367	249.48366	1050.03003	1155.6427	294.42313	945.96844	1129.20996	378.99039	834.86591	1149.2002	325.83838	827.99005	1121.71497	378.71399	761.02759	1114.30713	279.53372	1400.0127	1550.27747	230.22702	1203.63428	1660.55969	234.0549	1078.38257	1666.91956	267.93884	962.57336	1699.1499	350.06351	847.79071	1677.46106	310.61499	848.8374	1720.745	349.54221	771.82513	1716.08826	329.72073	935.98529	1313.51282	330.3826	935.72754	1531.53796	142.71944	941.95563	1367.62292	145.66263	940.67035	1512.62207	321.79111	604.04541	1261.1283	324.00562	469.50412	1281.36292	272.67307	285.75015	1274.12378	243.67244	70.6533	1330.88245	198.46526	41.86053	1383.25391	389.95187	34.97149	1320.70557	338.24182	604.06177	1598.83801	365.92477	450.45581	1585.83887	218.24547	355.60559	1579.86877	70.04313	215.79108	1530.31543	18.65194	217.31476	1469.56323	122.51398	84.9532	1554.76306	353.58893	1710.1355	1411.80542	1973.14685	1023.46497	-3101.89038	2012.65662	1022.15405	-3140.70923	NaN	NaN	NaN
